<svg xmlns="http://www.w3.org/2000/svg" width="350" height="31.814"><g fill="#FEFDFB"><path d="M38.587 27.255c-.327.509-.641 1.033-.938 1.576-.299.547-.574 1.068-.827 1.57-.254.498-.439.895-.559 1.189-.924-.032-1.743-.054-2.457-.067-.715-.016-1.416-.022-2.101-.022h-7.731c-.953 0-1.897.006-2.836.022l-2.882.044c-.983.013-2.026.035-3.128.067l-.177-.358c.505-.33.871-.739 1.093-1.228.224-.492.335-1.154.335-1.989v-24.574c0-.774-.098-1.384-.291-1.832-.193-.447-.589-.806-1.185-1.074l.134-.444c1.101.058 2.056.102 2.86.134.804.029 1.58.042 2.322.042h5.1850000000000005c2.025 0 3.999-.006 5.92-.02 1.921-.016 3.894-.083 5.92-.202-.119.18-.269.454-.446.825-.179.375-.364.768-.557 1.187-.196.415-.375.818-.538 1.205-.165.386-.291.7-.38.937-.239-.281-.664-.486-1.273-.614-.61-.125-1.646-.188-3.105-.188h-9.115v8.801h3.351c1.639 0 2.941-.035 3.91-.112.967-.073 1.706-.259 2.212-.559l.267.224c-.119.15-.275.403-.469.755-.195.354-.388.745-.582 1.17-.193.425-.372.838-.535 1.234-.165.397-.289.716-.379.953-.418-.236-1.036-.387-1.854-.447-.819-.058-1.841-.089-3.061-.089h-2.86v13.002h7.955c1.458 0 2.68-.058 3.664-.18.981-.118 1.815-.297 2.501-.533.684-.24 1.266-.521 1.742-.851.477-.326.938-.713 1.385-1.16l.403.313c-.268.356-.565.788-.893 1.293zM68.322 1.675c-.253.403-.379.975-.379 1.72v28.329l-.894.089c-.417-.745-1.028-1.634-1.832-2.66-.804-1.026-1.773-2.225-2.904-3.596l-15.059-18.498v20.599c0 .953.171 1.698.515 2.234.342.534.9.965 1.675 1.295l-.134.403c-.209 0-.469-.009-.781-.022l-.983-.044c-.344-.016-.678-.022-1.006-.022h-2.591c-.627 0-1.193.029-1.698.089l-.134-.447c.417-.237.76-.56 1.028-.963.267-.399.401-.93.401-1.585v-24.708c0-.777-.171-1.461-.513-2.057-.344-.594-.798-.997-1.364-1.208l.134-.399c.328.058.759.086 1.297.086h3.6630000000000003c.804 0 1.502-.029 2.101-.086.177.416.587 1.077 1.228 1.989.641.908 1.602 2.151 2.882 3.731l11.26 13.849v-16.487c0-.774-.134-1.363-.402-1.765-.267-.402-.656-.707-1.161-.917l.133-.399c.506.058 1.117.086 1.832.086h3.3070000000000004c.565 0 1.057-.029 1.474-.086l.134.399c-.566.3-.975.649-1.229 1.051zM102.503 18.23c-.342.416-.513.981-.513 1.698v6.211c.505-.208.908-.418 1.206-.626l.492.582c-1.518 1.727-3.47 3.11-5.854 4.153-2.384 1.045-4.975 1.566-7.774 1.566-2.385 0-4.565-.345-6.546-1.029-1.982-.685-3.686-1.698-5.117-3.037-1.429-1.343-2.546-2.996-3.35-4.961-.804-1.966-1.208-4.243-1.208-6.836 0-2.353.44-4.511 1.319-6.478.877-1.966 2.056-3.65 3.53-5.051 1.473-1.4 3.157-2.487 5.048-3.26 1.893-.775 3.85-1.162 5.876-1.162 2.323 0 4.342.23 6.056.69 1.712.464 3.193 1.081 4.445 1.854 0 .3.006.694.022 1.186.015.489.045.997.089 1.519.046.521.083 1.02.113 1.497.029.476.073.863.132 1.161l-.535.223c-2.562-3.334-5.958-5.003-10.188-5.003-1.518 0-2.905.307-4.154.917-1.251.61-2.325 1.467-3.218 2.567-.894 1.104-1.58 2.43-2.056 3.978-.476 1.55-.714 3.277-.714 5.182 0 2.116.274 3.971.826 5.563.552 1.596 1.341 2.941 2.369 4.044 1.025 1.104 2.27 1.928 3.729 2.481 1.46.55 3.098.825 4.916.825 2.025 0 3.753-.208 5.185-.624v-7.864c0-.834-.188-1.49-.56-1.966-.372-.477-.887-.834-1.541-1.074l.135-.489c.267.029.608.051 1.026.067.417.016.834.022 1.251.022h4.647c.922 0 1.698-.032 2.324-.089l.178.489c-.714.3-1.244.658-1.586 1.074zM117.091 31.59c-.565-.032-1.302-.054-2.212-.067-.908-.016-1.646-.022-2.21-.022h-2.368c-.894 0-1.641.029-2.235.089l-.089-.447c.655-.298 1.14-.64 1.451-1.03.314-.386.47-.965.47-1.742v-24.752c0-.863-.134-1.512-.401-1.944-.269-.431-.701-.768-1.296-1.007l.179-.444c.564.058 1.265.086 2.099.086h4.335c.415 0 .818-.006 1.205-.02.387-.016.716-.038.983-.067l.18.399c-.566.24-1.014.566-1.342.984-.327.417-.49.981-.49 1.698v25.021c0 .776.163 1.365.49 1.764.328.403.79.754 1.387 1.052l-.136.449zM148.57 1.675c-.254.403-.38.975-.38 1.72v28.329l-.894.089c-.417-.745-1.028-1.634-1.832-2.66-.804-1.026-1.772-2.225-2.904-3.596l-15.059-18.498v20.599c0 .953.171 1.698.514 2.234.342.534.9.965 1.675 1.295l-.134.402c-.208 0-.469-.009-.782-.022l-.983-.044c-.342-.016-.678-.022-1.005-.022h-2.592c-.625 0-1.191.029-1.698.089l-.134-.447c.417-.237.759-.56 1.028-.963.268-.399.403-.93.403-1.585v-24.707c0-.777-.173-1.461-.515-2.057-.342-.594-.798-.997-1.362-1.208l.133-.399c.327.058.761.086 1.296.086h3.664s1.504-.029 2.1-.086c.179.416.587 1.077 1.23 1.989.639.908 1.6 2.151 2.88 3.731l11.26 13.849v-16.487c0-.774-.135-1.363-.403-1.765-.266-.402-.654-.707-1.16-.917l.134-.399c.505.058 1.115.086 1.832.086h3.3070000000000004c.565 0 1.056-.029 1.473-.086l.136.399c-.566.3-.976.649-1.228 1.051zM178.169 27.255c-.329.509-.639 1.033-.935 1.576-.3.547-.577 1.068-.83 1.57-.252.498-.439.895-.558 1.189-.922-.032-1.744-.054-2.456-.067-.715-.016-1.417-.022-2.1-.022h-7.732c-.953 0-1.899.006-2.837.022l-2.882.044c-.983.013-2.025.035-3.127.067l-.179-.358c.507-.33.871-.739 1.095-1.228.225-.492.336-1.154.336-1.989v-24.574c0-.774-.098-1.384-.292-1.832-.195-.447-.588-.806-1.185-1.074l.134-.444c1.102.058 2.057.102 2.861.134.803.029 1.577.042 2.322.042h5.182c2.026 0 4-.006 5.921-.02 1.923-.016 3.896-.083 5.921-.202-.12.18-.269.454-.447.825-.18.375-.366.768-.557 1.187-.195.415-.373.818-.539 1.205-.163.386-.288.7-.377.937-.24-.281-.664-.486-1.275-.614-.611-.125-1.647-.188-3.104-.188h-9.117v8.801h3.352c1.637 0 2.941-.035 3.91-.112.969-.073 1.705-.259 2.211-.559l.27.224c-.12.15-.276.403-.472.755-.191.354-.387.745-.578 1.17-.195.425-.375.838-.539 1.234-.161.397-.289.716-.377.953-.419-.236-1.037-.387-1.856-.447-.82-.058-1.84-.089-3.061-.089h-2.859v13.002h7.954c1.46 0 2.683-.058 3.666-.18.983-.118 1.814-.297 2.502-.533.682-.24 1.264-.521 1.742-.851.477-.326.937-.713 1.385-1.16l.399.313c-.265.356-.561.788-.892 1.293z"/></g><g fill="#FEFDFB"><path d="M309.177 20.752c-.298.464-.582.94-.847 1.433-.269.49-.521.969-.761 1.429-.236.464-.416.841-.537 1.139-1.279-.029-2.337-.051-3.171-.067-.834-.013-1.727-.022-2.679-.022v3.443c0 .863.169 1.503.512 1.918.342.419.902.793 1.675 1.12l-.131.447c-.269-.032-.62-.054-1.052-.067-.432-.016-.87-.022-1.317-.022h-4.827c-.445 0-.87.006-1.273.022-.402.013-.751.035-1.048.067l-.09-.447c.863-.327 1.475-.7 1.832-1.12.354-.415.534-1.039.534-1.874v-3.487h-4.019c-1.461 0-2.929.01-4.402.022-1.474.016-2.884.032-4.224.044-1.339.016-2.488.039-3.439.067l-.4-1.026 20.372-24.352 1.298.179v22.341c1.278-.029 2.366-.112 3.261-.247.896-.134 1.652-.313 2.279-.537.624-.224 1.16-.499 1.608-.825.444-.329.879-.7 1.294-1.119l.403.313c-.27.359-.554.768-.851 1.228zm-13.182-12.756l-11.66 13.942h11.66v-13.942zM334.223 26.248c-.582 1.148-1.416 2.139-2.503 2.973-1.088.834-2.405 1.474-3.952 1.922-1.551.447-3.293.671-5.23.671-1.995 0-3.916-.24-5.764-.716-1.849-.476-3.396-1.147-4.646-2.011 0-.297-.01-.7-.022-1.205-.017-.509-.045-1.036-.09-1.586-.045-.553-.089-1.081-.135-1.588l-.111-1.206.537-.224c2.472 3.606 5.866 5.407 10.186 5.407 2.146 0 3.82-.493 5.029-1.475 1.204-.981 1.81-2.547 1.81-4.69 0-2.145-.745-3.763-2.234-4.85-1.49-1.087-3.651-1.631-6.48-1.631h-2.546v-3.126h3.217c4.768 0 7.148-1.714 7.148-5.137 0-1.551-.498-2.711-1.496-3.488-.998-.774-2.555-1.161-4.671-1.161-1.995 0-3.73.463-5.205 1.384-1.474.924-2.819 2.264-4.044 4.021l-.534-.224.112-1.205c.044-.509.089-1.036.131-1.586.048-.553.076-1.081.092-1.585.014-.508.02-.911.02-1.209 1.344-.802 2.891-1.458 4.648-1.966 1.757-.504 3.662-.757 5.719-.757 3.455 0 6.15.617 8.085 1.854 1.938 1.235 2.906 3.016 2.906 5.339 0 1.877-.626 3.402-1.877 4.579-1.25 1.176-2.874 2.033-4.869 2.57v.134c2.443.565 4.326 1.467 5.652 2.702 1.323 1.237 1.988 2.989 1.988 5.252.001 1.402-.289 2.674-.871 3.818z"/></g><path fill="#FEFDFB" d="M229.352 1.675c-.252.403-.381.975-.381 1.72v28.329l-.892.089c-.418-.745-1.029-1.634-1.832-2.66-.805-1.026-1.773-2.225-2.906-3.596l-15.055-18.498v20.599c0 .953.17 1.698.512 2.234.342.534.902.965 1.676 1.295l-.131.402c-.211 0-.47-.009-.783-.022l-.985-.044c-.342-.016-.679-.022-1.004-.022h-2.593c-.624 0-1.189.029-1.698.089l-.134-.447c.416-.237.761-.56 1.029-.963.269-.399.403-.93.403-1.585v-24.707c0-.777-.173-1.461-.515-2.057-.342-.594-.799-.997-1.362-1.208l.135-.399c.326.058.757.086 1.295.086h3.6630000000000003c.803 0 1.502-.029 2.097-.086.179.416.592 1.077 1.231 1.989.64.908 1.602 2.151 2.883 3.731l11.257 13.849v-16.487c0-.774-.134-1.363-.399-1.765-.269-.402-.659-.707-1.164-.917l.134-.399c.504.058 1.115.086 1.832.086h3.306s1.058-.029 1.478-.086l.134.399c-.566.3-.979.649-1.231 1.051z"/><path fill="#FEFDFB" d="M253.746 14.592c-.531 1.326-1.257 2.487-2.171 3.481-.915.995-1.98 1.784-3.188 2.362-1.211.583-2.494.873-3.853.873-1.397 0-2.721-.249-3.97-.739-1.251-.492-2.344-1.192-3.277-2.097-.937-.905-1.679-1.992-2.229-3.261-.553-1.273-.828-2.673-.828-4.208 0-1.615.281-3.095.841-4.444.562-1.349 1.32-2.502 2.272-3.468.956-.965 2.065-1.714 3.338-2.245 1.269-.53 2.603-.796 3.999-.796 1.359 0 2.631.25 3.824.751 1.189.502 2.234 1.206 3.13 2.114.895.904 1.602 1.985 2.124 3.245.524 1.259.783 2.647.783 4.162.001 1.52-.265 2.939-.795 4.27zm-3.469-7.513c-.307-1.004-.739-1.877-1.298-2.616-.563-.738-1.238-1.313-2.024-1.727-.786-.412-1.662-.62-2.627-.62-.946 0-1.806.208-2.583.62-.777.413-1.442.995-1.992 1.743-.55.749-.975 1.653-1.27 2.714-.297 1.064-.444 2.257-.444 3.575 0 1.339.147 2.529.444 3.571.294 1.045.723 1.931 1.283 2.656.562.729 1.247 1.286 2.052 1.669.806.384 1.714.576 2.717.576 1.062 0 1.989-.227 2.775-.678.787-.454 1.432-1.074 1.934-1.86.501-.787.876-1.724 1.122-2.804.246-1.083.367-2.253.367-3.514 0-1.202-.153-2.301-.456-3.305z"/><line fill="#231F20" stroke="#FEFDFB" x1="234.292" y1="24.346" x2="255.875" y2="24.346"/><polygon fill="#FEFDFB" points="6.174,12.168 3.086,20.742 0,12.168"/><polygon fill="#FEFDFB" points="193.966,12.168 190.878,20.742 187.793,12.168"/><polygon fill="#FEFDFB" points="270.776,12.168 267.691,20.742 264.606,12.168"/><polygon fill="#FEFDFB" points="350,12.168 346.912,20.742 343.826,12.168"/></svg>